<svg width="51" height="49" viewBox="0 0 51 49" fill="none" xmlns="http://www.w3.org/2000/svg">
<path d="M4.25 19.3958C4.25004 17.1239 4.96739 14.9054 6.30728 13.0333C7.64718 11.1613 9.5466 9.72377 11.7547 8.91066C13.9627 8.09755 16.3756 7.94708 18.6745 8.47914C20.9735 9.0112 23.0504 10.2007 24.6309 11.8907C24.7422 12.005 24.8768 12.0962 25.0263 12.1585C25.1758 12.2209 25.337 12.253 25.5 12.253C25.663 12.253 25.8242 12.2209 25.9737 12.1585C26.1232 12.0962 26.2578 12.005 26.3691 11.8907C27.9447 10.1898 30.022 8.99022 32.3247 8.4517C34.6274 7.91318 37.0462 8.06122 39.2591 8.87612C41.472 9.69103 43.3742 11.1341 44.7124 13.0134C46.0505 14.8926 46.7613 17.1189 46.75 19.3958C46.75 24.0713 43.5625 27.5625 40.375 30.625L28.7045 41.4724C28.3085 41.9093 27.8203 42.2603 27.2723 42.502C26.7243 42.7437 26.1291 42.8706 25.5261 42.8743C24.9231 42.878 24.3263 42.7583 23.7751 42.5233C23.224 42.2883 22.7312 41.9433 22.3295 41.5112L10.625 30.625C7.4375 27.5625 4.25 24.0917 4.25 19.3958Z" stroke="black" stroke-width="4" stroke-linecap="round" stroke-linejoin="round"/>
<path d="M24.8112 27.6118H26.621L25.7161 28.3505L24.8112 27.6118Z" stroke="black" stroke-width="2" stroke-linecap="round" stroke-linejoin="round"/>
<path d="M30.5424 25.3954V25.888" stroke="black" stroke-width="2" stroke-linecap="round" stroke-linejoin="round"/>
<path d="M16.5703 22.6837C16.2326 23.7482 16.0623 24.8435 16.0636 25.9431C16.0636 30.0526 20.3855 32.2906 25.7161 32.2906C31.0467 32.2906 35.3686 30.0526 35.3686 25.9431C35.3626 24.839 35.1623 23.7413 34.7738 22.6837" stroke="black" stroke-width="3" stroke-linecap="round" stroke-linejoin="round"/>
<path d="M20.8898 25.3954V25.888" stroke="black" stroke-width="2" stroke-linecap="round" stroke-linejoin="round"/>
<path d="M21.4931 19.9779C21.0298 21.0121 20.1864 21.9755 18.6649 22.4404C16.335 23.1516 14.3502 22.1479 14.2537 21.4554C14.1174 20.4763 15.6738 15.0232 19.08 14.5603C21.4002 14.2441 23.4852 15.3926 23.4852 16.7618C25.0112 16.4454 26.612 16.4597 28.1292 16.8032C28.1292 15.434 30.3542 14.2441 32.6744 14.5603C36.0805 15.0232 37.637 20.4763 37.5006 21.4554C37.4041 22.1479 35.4193 23.1516 33.0894 22.4404C31.568 21.9755 30.8513 21.0121 30.3879 19.9779" stroke="black" stroke-width="3" stroke-linecap="round" stroke-linejoin="round"/>
</svg>
